<svg xmlns="http://www.w3.org/2000/svg" xmlns:xlink="http://www.w3.org/1999/xlink" width="500" zoomAndPan="magnify" viewBox="0 0 375 374.999991" height="500" preserveAspectRatio="xMidYMid meet" version="1.0"><defs><g/><clipPath id="15a02d104e"><path d="M 140.113281 111.164062 L 232.261719 111.164062 L 232.261719 215.414062 L 140.113281 215.414062 Z M 140.113281 111.164062 " clip-rule="nonzero"/></clipPath></defs><g clip-path="url(#15a02d104e)"><path fill="#fad02c" d="M 210.023438 160.675781 C 209.5 160.675781 209.078125 160.25 209.078125 159.726562 C 209.078125 155.109375 206.039062 151.351562 202.308594 151.351562 C 198.574219 151.351562 195.535156 155.109375 195.535156 159.726562 C 195.535156 160.25 195.113281 160.675781 194.589844 160.675781 C 194.066406 160.675781 193.644531 160.25 193.644531 159.726562 C 193.644531 154.066406 197.53125 149.457031 202.308594 149.457031 C 207.085938 149.457031 210.96875 154.066406 210.96875 159.726562 C 210.96875 160.25 210.546875 160.675781 210.023438 160.675781 Z M 175.984375 169.402344 C 176.507812 169.402344 176.933594 169.828125 176.933594 170.351562 C 176.933594 176.082031 180.722656 180.746094 185.382812 180.746094 C 190.042969 180.746094 193.832031 176.082031 193.832031 170.351562 C 193.832031 169.828125 194.257812 169.402344 194.78125 169.402344 C 195.304688 169.402344 195.726562 169.828125 195.726562 170.351562 C 195.726562 177.128906 191.085938 182.640625 185.382812 182.640625 C 179.679688 182.640625 175.039062 177.128906 175.039062 170.351562 C 175.039062 169.828125 175.460938 169.402344 175.984375 169.402344 Z M 160.992188 159.726562 C 160.992188 160.25 160.570312 160.675781 160.046875 160.675781 C 159.523438 160.675781 159.101562 160.25 159.101562 159.726562 C 159.101562 154.066406 162.988281 149.457031 167.765625 149.457031 C 172.542969 149.457031 176.429688 154.066406 176.429688 159.726562 C 176.429688 160.25 176.003906 160.675781 175.480469 160.675781 C 174.960938 160.675781 174.535156 160.25 174.535156 159.726562 C 174.535156 155.109375 171.5 151.351562 167.765625 151.351562 C 164.03125 151.351562 160.992188 155.109375 160.992188 159.726562 Z M 221.839844 132.808594 L 224.695312 122.738281 C 224.980469 122.78125 225.269531 122.808594 225.566406 122.808594 C 225.761719 122.808594 225.960938 122.800781 226.160156 122.78125 C 227.722656 122.621094 229.125 121.867188 230.113281 120.652344 C 231.09375 119.453125 231.546875 117.941406 231.390625 116.402344 C 231.066406 113.207031 228.191406 110.871094 224.984375 111.195312 C 223.421875 111.351562 222.015625 112.109375 221.027344 113.320312 C 220.046875 114.523438 219.59375 116.035156 219.75 117.574219 C 219.957031 119.601562 221.195312 121.28125 222.894531 122.15625 L 219.980469 132.429688 C 219.347656 132.34375 218.703125 132.292969 218.046875 132.292969 L 154.324219 132.292969 C 153.96875 132.292969 153.617188 132.3125 153.269531 132.335938 L 150.382812 122.15625 C 152.078125 121.28125 153.316406 119.601562 153.523438 117.574219 C 153.679688 116.035156 153.226562 114.523438 152.246094 113.320312 C 151.257812 112.109375 149.851562 111.351562 148.292969 111.195312 C 145.089844 110.871094 142.207031 113.207031 141.882812 116.402344 C 141.726562 117.941406 142.179688 119.453125 143.160156 120.652344 C 144.148438 121.867188 145.550781 122.621094 147.113281 122.78125 C 147.3125 122.800781 147.511719 122.808594 147.707031 122.808594 C 148.003906 122.808594 148.292969 122.78125 148.578125 122.738281 L 151.375 132.601562 C 144.949219 133.957031 140.113281 139.640625 140.113281 146.425781 L 140.113281 184.574219 C 140.113281 192.023438 145.992188 198.132812 153.378906 198.550781 L 153.378906 213.835938 C 153.378906 214.464844 153.75 215.035156 154.328125 215.285156 C 154.53125 215.371094 154.746094 215.414062 154.957031 215.414062 C 155.351562 215.414062 155.738281 215.269531 156.03125 214.992188 L 172.765625 199.5625 C 173.503906 198.925781 174.449219 198.574219 175.429688 198.574219 L 218.046875 198.574219 C 225.882812 198.574219 232.257812 192.234375 232.257812 184.441406 L 232.257812 146.425781 C 232.257812 139.941406 227.839844 134.464844 221.839844 132.808594 " fill-opacity="1" fill-rule="nonzero"/></g><g fill="#ffffff" fill-opacity="1"><g transform="translate(148.371433, 242.175716)"><g><path d="M 20.5 -20.296875 L 20.5 0 L 17.609375 0 L 17.609375 -9.046875 L 5.9375 -9.046875 L 5.9375 0 L 3.046875 0 L 3.046875 -20.296875 L 5.9375 -20.296875 L 5.9375 -11.578125 L 17.609375 -11.578125 L 17.609375 -20.296875 Z M 20.5 -20.296875 "/></g></g></g><g fill="#ffffff" fill-opacity="1"><g transform="translate(171.913084, 242.175716)"><g><path d="M 8.234375 -15.515625 C 10.359375 -15.515625 11.984375 -14.992188 13.109375 -13.953125 C 14.242188 -12.910156 14.8125 -11.351562 14.8125 -9.28125 L 14.8125 0 L 12.1875 0 L 12.1875 -2.03125 C 11.71875 -1.3125 11.050781 -0.765625 10.1875 -0.390625 C 9.332031 -0.015625 8.316406 0.171875 7.140625 0.171875 C 5.410156 0.171875 4.03125 -0.238281 3 -1.0625 C 1.96875 -1.894531 1.453125 -2.988281 1.453125 -4.34375 C 1.453125 -5.695312 1.941406 -6.785156 2.921875 -7.609375 C 3.910156 -8.429688 5.476562 -8.84375 7.625 -8.84375 L 12.03125 -8.84375 L 12.03125 -9.390625 C 12.03125 -10.585938 11.679688 -11.503906 10.984375 -12.140625 C 10.296875 -12.785156 9.273438 -13.109375 7.921875 -13.109375 C 7.003906 -13.109375 6.109375 -12.957031 5.234375 -12.65625 C 4.367188 -12.351562 3.640625 -11.953125 3.046875 -11.453125 L 1.890625 -13.546875 C 2.679688 -14.179688 3.625 -14.664062 4.71875 -15 C 5.820312 -15.34375 6.992188 -15.515625 8.234375 -15.515625 Z M 7.59375 -1.96875 C 8.65625 -1.96875 9.570312 -2.203125 10.34375 -2.671875 C 11.125 -3.148438 11.6875 -3.828125 12.03125 -4.703125 L 12.03125 -6.84375 L 7.75 -6.84375 C 5.382812 -6.84375 4.203125 -6.050781 4.203125 -4.46875 C 4.203125 -3.695312 4.5 -3.085938 5.09375 -2.640625 C 5.695312 -2.191406 6.53125 -1.96875 7.59375 -1.96875 Z M 7.59375 -1.96875 "/></g></g></g><g fill="#ffffff" fill-opacity="1"><g transform="translate(189.250401, 242.175716)"><g><path d="M 2.640625 -21.515625 L 5.421875 -21.515625 L 5.421875 0 L 2.640625 0 Z M 2.640625 -21.515625 "/></g></g></g><g fill="#ffffff" fill-opacity="1"><g transform="translate(197.339222, 242.175716)"><g><path d="M 2.640625 -21.515625 L 5.421875 -21.515625 L 5.421875 0 L 2.640625 0 Z M 2.640625 -21.515625 "/></g></g></g><g fill="#ffffff" fill-opacity="1"><g transform="translate(205.428043, 242.175716)"><g><path d="M 9.21875 0.171875 C 7.695312 0.171875 6.328125 -0.164062 5.109375 -0.84375 C 3.890625 -1.519531 2.9375 -2.453125 2.25 -3.640625 C 1.5625 -4.828125 1.21875 -6.175781 1.21875 -7.6875 C 1.21875 -9.195312 1.5625 -10.546875 2.25 -11.734375 C 2.9375 -12.921875 3.890625 -13.847656 5.109375 -14.515625 C 6.328125 -15.179688 7.695312 -15.515625 9.21875 -15.515625 C 10.75 -15.515625 12.117188 -15.179688 13.328125 -14.515625 C 14.535156 -13.847656 15.484375 -12.921875 16.171875 -11.734375 C 16.859375 -10.546875 17.203125 -9.195312 17.203125 -7.6875 C 17.203125 -6.175781 16.859375 -4.828125 16.171875 -3.640625 C 15.484375 -2.453125 14.535156 -1.519531 13.328125 -0.84375 C 12.117188 -0.164062 10.75 0.171875 9.21875 0.171875 Z M 9.21875 -2.265625 C 10.207031 -2.265625 11.09375 -2.488281 11.875 -2.9375 C 12.65625 -3.394531 13.269531 -4.035156 13.71875 -4.859375 C 14.164062 -5.679688 14.390625 -6.625 14.390625 -7.6875 C 14.390625 -8.75 14.164062 -9.691406 13.71875 -10.515625 C 13.269531 -11.335938 12.65625 -11.96875 11.875 -12.40625 C 11.09375 -12.851562 10.207031 -13.078125 9.21875 -13.078125 C 8.238281 -13.078125 7.351562 -12.851562 6.5625 -12.40625 C 5.78125 -11.96875 5.160156 -11.335938 4.703125 -10.515625 C 4.253906 -9.691406 4.03125 -8.75 4.03125 -7.6875 C 4.03125 -6.625 4.253906 -5.679688 4.703125 -4.859375 C 5.160156 -4.035156 5.78125 -3.394531 6.5625 -2.9375 C 7.351562 -2.488281 8.238281 -2.265625 9.21875 -2.265625 Z M 9.21875 -2.265625 "/></g></g></g></svg>